/* XPM */
const char *icon_xpm[] = {
"64 64 637 2",
"  	c None",
". 	c #000000",
"+ 	c #595D6A",
"@ 	c #B3BED6",
"# 	c #C0CBE6",
"$ 	c #9AA3B9",
"% 	c #656B7B",
"& 	c #151515",
"* 	c #383B42",
"= 	c #A0AABF",
"- 	c #CFDDF8",
"; 	c #D0DDF9",
"> 	c #CEDAF8",
", 	c #CCD7F6",
"' 	c #C9D4F4",
") 	c #BCC6E6",
"! 	c #9AA1BD",
"~ 	c #6D7085",
"{ 	c #22222B",
"] 	c #8891A2",
"^ 	c #CAD8F0",
"/ 	c #D2E0FB",
"( 	c #D1DEFA",
"_ 	c #CFDBF9",
": 	c #CDD9F7",
"< 	c #CAD5F5",
"[ 	c #C8D2F3",
"} 	c #C5CEF1",
"| 	c #C2CAEE",
"1 	c #BEC6EC",
"2 	c #B6BCE3",
"3 	c #979CBE",
"4 	c #6F728C",
"5 	c #2E323D",
"6 	c #6A727E",
"7 	c #BFCCE4",
"8 	c #D4E3FD",
"9 	c #D3E1FC",
"0 	c #D2DFFB",
"a 	c #CBD7F6",
"b 	c #C6D0F2",
"c 	c #C3CCEF",
"d 	c #C0C8ED",
"e 	c #BCC3EA",
"f 	c #B9BFE7",
"g 	c #B6BAE5",
"h 	c #B3B7E3",
"i 	c #AFB2DF",
"j 	c #9697C0",
"k 	c #727493",
"l 	c #3B3B4C",
"m 	c #484E57",
"n 	c #ADB9CE",
"o 	c #D5E3FD",
"p 	c #D4E2FC",
"q 	c #CFDBF8",
"r 	c #CDD8F7",
"s 	c #C7D2F3",
"t 	c #C5CEF0",
"u 	c #C1CAEE",
"v 	c #BEC5EB",
"w 	c #BBC1E9",
"x 	c #B8BDE6",
"y 	c #B5B9E4",
"z 	c #B2B5E2",
"A 	c #AFB2E0",
"B 	c #ADAFDE",
"C 	c #ABACDC",
"D 	c #A8AADA",
"E 	c #9797C3",
"F 	c #75759A",
"G 	c #46465D",
"H 	c #272B2E",
"I 	c #97A2B4",
"J 	c #D1E0F9",
"K 	c #D6E5FE",
"L 	c #D5E4FE",
"M 	c #D4E2FD",
"N 	c #D1DFFB",
"O 	c #D0DCF9",
"P 	c #C9D3F4",
"Q 	c #C6CFF2",
"R 	c #B0B3E1",
"S 	c #AEB0DF",
"T 	c #ACADDD",
"U 	c #AAABDC",
"V 	c #A8A9DA",
"W 	c #A7A7D9",
"X 	c #A0A0D2",
"Y 	c #6A6AA4",
"Z 	c #7B8392",
"` 	c #C8D6ED",
" .	c #D7E6FF",
"..	c #D6E5FF",
"+.	c #D6E4FE",
"@.	c #D4E1FC",
"#.	c #D0DDFA",
"$.	c #CEDBF8",
"%.	c #CCD8F7",
"&.	c #BAC0E9",
"*.	c #B7BCE6",
"=.	c #B4B8E4",
"-.	c #B1B5E2",
";.	c #AFB1E0",
">.	c #A9AADB",
",.	c #A8A8DA",
"'.	c #8D8DC2",
").	c #46468D",
"!.	c #353583",
"~.	c #CFD6FA",
"{.	c #D1DCFB",
"].	c #D5E3FE",
"^.	c #D3E0FC",
"/.	c #C3CBEF",
"(.	c #BFC7ED",
"_.	c #BCC2EA",
":.	c #B9BEE7",
"<.	c #B5BAE5",
"[.	c #B3B6E2",
"}.	c #B0B3E0",
"|.	c #A2A3D4",
"1.	c #6B6BA5",
"2.	c #CDD3F9",
"3.	c #CAD0F7",
"4.	c #C7CCF5",
"5.	c #C8D0F5",
"6.	c #CED9F9",
"7.	c #D3E0FB",
"8.	c #C7D1F3",
"9.	c #C4CDF0",
"0.	c #C1C9EE",
"a.	c #BAC0E8",
"b.	c #B4B8E3",
"c.	c #B1B4E1",
"d.	c #8F90C3",
"e.	c #C3C7F2",
"f.	c #BFC2EE",
"g.	c #BCC0EC",
"h.	c #C2C9EF",
"i.	c #CAD4F5",
"j.	c #CBD6F6",
"k.	c #C8D3F4",
"l.	c #C6CFF1",
"m.	c #C2CBEF",
"n.	c #BFC7EC",
"o.	c #BCC2E9",
"p.	c #B8BEE7",
"q.	c #A6A7D7",
"r.	c #6D6EA6",
"s.	c #CBD0F7",
"t.	c #BFC3EF",
"u.	c #BABDEB",
"v.	c #B5B7E7",
"w.	c #B1B2E4",
"x.	c #B3B6E5",
"y.	c #C4CEEF",
"z.	c #C1C9ED",
"A.	c #AFB1DF",
"B.	c #9293C5",
"C.	c #48488D",
"D.	c #353584",
"E.	c #ADADE1",
"F.	c #A9A9DE",
"G.	c #A7A7DC",
"H.	c #ADAFE1",
"I.	c #B6BCE6",
"J.	c #BBC2E8",
"K.	c #B5BAE4",
"L.	c #B2B6E2",
"M.	c #AAACDA",
"N.	c #6F6FA7",
"O.	c #A6A6DC",
"P.	c #A3A2DA",
"Q.	c #A1A0D8",
"R.	c #A0A0D8",
"S.	c #A9AADD",
"T.	c #B0B2E0",
"U.	c #9698C8",
"V.	c #48488E",
"W.	c #353585",
"X.	c #CED3F9",
"Y.	c #C4C8F2",
"Z.	c #B6B8E7",
"`.	c #9F9ED7",
" +	c #9E9CD6",
".+	c #9D9BD5",
"++	c #383887",
"@+	c #383888",
"#+	c #353586",
"$+	c #3B3B8A",
"%+	c #BBBDEB",
"&+	c #ADAEE1",
"*+	c #A4A3DA",
"=+	c #3D3D8C",
"-+	c #3D3D8F",
";+	c #C0C3EF",
">+	c #404091",
",+	c #B1B3E4",
"'+	c #A09ED7",
")+	c #383889",
"!+	c #424091",
"~+	c #424294",
"{+	c #3D3D8D",
"]+	c #424295",
"^+	c #464498",
"/+	c #523838",
"(+	c #D48F8F",
"_+	c #CED4FA",
":+	c #B6B8E8",
"<+	c #AAAADE",
"[+	c #3B3B8B",
"}+	c #424092",
"|+	c #48489B",
"1+	c #97926E",
"2+	c #2B2B1C",
"3+	c #9B6969",
"4+	c #F5A5A5",
"5+	c #FFACAC",
"6+	c #9D9CD5",
"7+	c #403D8F",
"8+	c #4C4A9F",
"9+	c #FFF7B8",
"0+	c #F5ECAA",
"a+	c #C4BE84",
"b+	c #77734E",
"c+	c #383586",
"d+	c #444295",
"e+	c #4A4A9C",
"f+	c #323267",
"g+	c #F7E07F",
"h+	c #FDF1A5",
"i+	c #FFF6A9",
"j+	c #FFF5A4",
"k+	c #E8DE90",
"l+	c #AFA76A",
"m+	c #524E32",
"n+	c #C8CDF5",
"o+	c #BBBEEC",
"p+	c #9E9DD6",
"q+	c #424292",
"r+	c #48489C",
"s+	c #464692",
"t+	c #222248",
"u+	c #352E00",
"v+	c #C3A615",
"w+	c #F2CE15",
"x+	c #F2CE22",
"y+	c #F7DD6A",
"z+	c #FCEE94",
"A+	c #FFF49D",
"B+	c #FFF499",
"C+	c #FCF094",
"D+	c #D7CD7C",
"E+	c #979055",
"F+	c #2B2715",
"G+	c #676A7D",
"H+	c #A7ACCC",
"I+	c #C6CBF3",
"J+	c #403D90",
"K+	c #464698",
"L+	c #3D3D80",
"M+	c #151527",
"N+	c #6A5A00",
"O+	c #DEBE1C",
"P+	c #F2CF1C",
"Q+	c #F3D01C",
"R+	c #F6DB5A",
"S+	c #FDEF8D",
"T+	c #FFF394",
"U+	c #FFF391",
"V+	c #FFF38E",
"W+	c #F5E886",
"X+	c #C5BA6B",
"Y+	c #D9A040",
"Z+	c #B57A7A",
"`+	c #4A3232",
" @	c #484A5A",
".@	c #9396B6",
"+@	c #BABDE7",
"@@	c #B2B3E5",
"#@	c #464699",
"$@	c #323266",
"%@	c #9B8515",
"&@	c #EDCD1C",
"*@	c #F3D11C",
"=@	c #F2D21C",
"-@	c #F9E370",
";@	c #FFF294",
">@	c #FFF392",
",@	c #FFF390",
"'@	c #FFF28D",
")@	c #FFF28C",
"!@	c #FFF089",
"~@	c #FCC65D",
"{@	c #FAA8A8",
"]@	c #C98888",
"^@	c #6E4A4A",
"/@	c #2B2E38",
"(@	c #7C7E9C",
"_@	c #A7AAD6",
":@	c #A7A6DC",
"<@	c #404090",
"[@	c #444290",
"}@	c #222246",
"|@	c #C3A915",
"1@	c #F4D31C",
"2@	c #F4D535",
"3@	c #FBEA85",
"4@	c #FFF497",
"5@	c #FEED86",
"6@	c #FBB84C",
"7@	c #FAA015",
"8@	c #FEABAB",
"9@	c #DB9494",
"0@	c #906060",
"a@	c #000015",
"b@	c #656581",
"c@	c #9596C2",
"d@	c #AAAADD",
"e@	c #444496",
"f@	c #3D3B7E",
"g@	c #6B5D00",
"h@	c #E0C31C",
"i@	c #F4D522",
"j@	c #F5D622",
"k@	c #F7DC54",
"l@	c #FDF093",
"m@	c #FFF498",
"n@	c #FFF395",
"o@	c #FFF38F",
"p@	c #FEE781",
"q@	c #FAAE3D",
"r@	c #FAA115",
"s@	c #F07878",
"t@	c #F89898",
"u@	c #EB9E9E",
"v@	c #AA7272",
"w@	c #382727",
"x@	c #4A4A60",
"y@	c #8383AD",
"z@	c #A1A0D6",
"A@	c #A2A0D8",
"B@	c #424293",
"C@	c #2E2E63",
"D@	c #9C8815",
"E@	c #F0D222",
"F@	c #F5D722",
"G@	c #F9E570",
"H@	c #FEF39C",
"I@	c #FFF49A",
"J@	c #FFF396",
"K@	c #FFF393",
"L@	c #FDDF7A",
"M@	c #F9A527",
"N@	c #FAA215",
"O@	c #EC6666",
"P@	c #EE7070",
"Q@	c #F69090",
"R@	c #FDA7A7",
"S@	c #F6A6A6",
"T@	c #BF8181",
"U@	c #5D4040",
"V@	c #323242",
"W@	c #737299",
"X@	c #9796CB",
"Y@	c #40408D",
"Z@	c #222244",
"`@	c #C5AE1C",
" #	c #F6D927",
".#	c #F6DA38",
"+#	c #FBEC89",
"@#	c #FFF5A0",
"##	c #FFF49C",
"$#	c #FCD46E",
"%#	c #F9A015",
"&#	c #FA9F15",
"*#	c #FAA31C",
"=#	c #EC6A6A",
"-#	c #F48787",
";#	c #FBA2A2",
">#	c #F29EA0",
",#	c #97506B",
"'#	c #002254",
")#	c #001532",
"!#	c #151522",
"~#	c #626083",
"{#	c #8D8CBE",
"]#	c #38387C",
"^#	c #6D6015",
"/#	c #E2C822",
"(#	c #F6DA27",
"_#	c #F6DB27",
":#	c #F7DF52",
"<#	c #FDF19B",
"[#	c #FFF5A2",
"}#	c #FFF49E",
"|#	c #FFF190",
"1#	c #FBC65F",
"2#	c #F99E00",
"3#	c #FAA315",
"4#	c #FAA41C",
"5#	c #EB6666",
"6#	c #F17E7E",
"7#	c #F99C9C",
"8#	c #FFABAB",
"9#	c #E38A8F",
"0#	c #AE2B4A",
"a#	c #A31C48",
"b#	c #152B65",
"c#	c #002B65",
"d#	c #00275A",
"e#	c #9A6500",
"f#	c #EC9B1C",
"g#	c #F29F1C",
"h#	c #F4B31C",
"i#	c #F6CD2B",
"j#	c #F7DB2B",
"k#	c #F7DD2B",
"l#	c #FAE672",
"m#	c #FEF5A5",
"n#	c #FFF5A5",
"o#	c #FEEE8E",
"p#	c #FAB84E",
"q#	c #FAA61C",
"r#	c #EF7474",
"s#	c #F79595",
"t#	c #FEA9A9",
"u#	c #FCA8A9",
"v#	c #CE6E77",
"w#	c #AA0044",
"x#	c #AB1546",
"y#	c #AD1548",
"z#	c #60275F",
"A#	c #AA6D00",
"B#	c #462E00",
"C#	c #352200",
"D#	c #C37F15",
"E#	c #F29E1C",
"F#	c #F39F1C",
"G#	c #F3A01C",
"H#	c #F4A11C",
"I#	c #F4A222",
"J#	c #F5AD27",
"K#	c #F5C82B",
"L#	c #FBEB8A",
"M#	c #FFF6AC",
"N#	c #FFF5A7",
"O#	c #FEE888",
"P#	c #F9AD3D",
"Q#	c #F99F00",
"R#	c #FAA51C",
"S#	c #FBA722",
"T#	c #ED6D6D",
"U#	c #F58C8C",
"V#	c #FDA6A6",
"W#	c #BA4C5F",
"X#	c #A90044",
"Y#	c #AC1548",
"Z#	c #AE154A",
"`#	c #902255",
" $	c #F19B15",
".$	c #EC9915",
"+$	c #E39415",
"@$	c #F5A322",
"#$	c #F5A422",
"$$	c #F8BC2E",
"%$	c #F9D442",
"&$	c #FCE27B",
"*$	c #FEF09C",
"=$	c #FFF49F",
"-$	c #FFF49B",
";$	c #FDDF80",
">$	c #F9A42B",
",$	c #FBA827",
"'$	c #EC6767",
")$	c #F28383",
"!$	c #FAA0A0",
"~$	c #E28A8F",
"{$	c #AD2748",
"]$	c #AB1544",
"^$	c #AC1546",
"/$	c #AE1548",
"($	c #AF154A",
"_$	c #AD1C4E",
":$	c #2B2B63",
"<$	c #F19C15",
"[$	c #F29C15",
"}$	c #F29D1C",
"|$	c #F39E1C",
"1$	c #F7B42B",
"2$	c #F9D535",
"3$	c #FAD435",
"4$	c #F9D132",
"5$	c #F9CF32",
"6$	c #FADA65",
"7$	c #FDEB8A",
"8$	c #FCD475",
"9$	c #F99F15",
"0$	c #F99D00",
"a$	c #FAA622",
"b$	c #FBA822",
"c$	c #FBA927",
"d$	c #A80042",
"e$	c #A90042",
"f$	c #AA1544",
"g$	c #B11C4C",
"h$	c #B31C50",
"i$	c #72275F",
"j$	c #F29D15",
"k$	c #F6AD27",
"l$	c #FAD638",
"m$	c #FBD838",
"n$	c #FAD635",
"o$	c #FAD432",
"p$	c #F9CF2E",
"q$	c #F8CC2B",
"r$	c #FBAA2B",
"s$	c #B0154C",
"t$	c #B21C4E",
"u$	c #B51C52",
"v$	c #9E225A",
"w$	c #F6A727",
"x$	c #FAD43B",
"y$	c #FCDC3D",
"z$	c #FBDA3B",
"A$	c #FA9F00",
"B$	c #FBAB2E",
"C$	c #B41C50",
"D$	c #B62254",
"E$	c #B82757",
"F$	c #422765",
"G$	c #F5A427",
"H$	c #FACD38",
"I$	c #FCE040",
"J$	c #FCDE3D",
"K$	c #FBAB2B",
"L$	c #FBAC2E",
"M$	c #B82257",
"N$	c #BA2759",
"O$	c #832B60",
"P$	c #F9C235",
"Q$	c #FDE342",
"R$	c #FDE142",
"S$	c #FBAD32",
"T$	c #B11C4E",
"U$	c #B52254",
"V$	c #B82255",
"W$	c #BC2B5C",
"X$	c #AE2E60",
"Y$	c #F8B732",
"Z$	c #FEE544",
"`$	c #FDE442",
" %	c #FBAE32",
".%	c #B72255",
"+%	c #B92759",
"@%	c #BC2B5A",
"#%	c #BF2E5D",
"$%	c #C13262",
"%%	c #F7AD2E",
"&%	c #FDE344",
"*%	c #FEE746",
"=%	c #FCDC3B",
"-%	c #FBAD2E",
";%	c #FCAF35",
">%	c #B92757",
",%	c #BB2B5A",
"'%	c #BE2E5D",
")%	c #C13260",
"!%	c #C43565",
"~%	c #FCDC42",
"{%	c #FEE948",
"]%	c #FEE846",
"^%	c #FCAF38",
"/%	c #BB275A",
"(%	c #BD2B5D",
"_%	c #C02E60",
":%	c #C33565",
"<%	c #C63867",
"[%	c #FBD240",
"}%	c #FFEA48",
"|%	c #FBAA27",
"1%	c #FCAE35",
"2%	c #B88027",
"3%	c #BD2B5C",
"4%	c #C33563",
"5%	c #C53866",
"6%	c #C83D6A",
"7%	c #F6A527",
"8%	c #FEE546",
"9%	c #FFEB4A",
"0%	c #FCDF40",
"a%	c #FBAE35",
"b%	c #BF2E5F",
"c%	c #C23263",
"d%	c #C43866",
"e%	c #C73D6A",
"f%	c #C9426D",
"g%	c #F6A627",
"h%	c #FCDA42",
"i%	c #FDE140",
"j%	c #C73B69",
"k%	c #C7406B",
"l%	c #772742",
"m%	c #F7A72B",
"n%	c #FACD3D",
"o%	c #FFEC4A",
"p%	c #7E3535",
"q%	c #CF5959",
"r%	c #C63B67",
"s%	c #C33B6A",
"t%	c #6B223B",
"u%	c #835715",
"v%	c #D89227",
"w%	c #F7A82B",
"x%	c #F9C035",
"y%	c #B87F27",
"z%	c #C03B66",
"A%	c #5D1C32",
"B%	c #835915",
"C%	c #DA9E2E",
"D%	c #BA3863",
"E%	c #501C2B",
"F%	c #887E27",
"G%	c #E0CF42",
"H%	c #B53860",
"I%	c #441527",
"J%	c #AF355C",
"K%	c #38151C",
"L%	c #A73257",
"M%	c #2B0015",
"N%	c #E0CE42",
"O%	c #9F2E54",
"P%	c #1C0000",
"Q%	c #887D27",
"R%	c #B77F22",
"S%	c #952B4C",
"T%	c #E0CD40",
"                                                                                                                                ",
"                                                                                                                                ",
"                                                                                                                                ",
"                                                    . . . . .                                                                   ",
"                                                . . . . . . . . . .                                                             ",
"                                              . . . + @ # $ % & . . . . .                                                       ",
"                                          . . . * = - ; > , ' ) ! ~ { . . . . . .                                               ",
"                                      . . . & ] ^ / ( _ : < [ } | 1 2 3 4 5 . . . . . .                                         ",
"                                  . . . . 6 7 8 9 0 ; > a ' b c d e f g h i j k l . . . . .                                     ",
"                                . . . m n o o p / ( q r < s t u v w x y z A B C D E F G . .                                     ",
"                            . . . H I J K L M 9 N O > a P Q c d e f g h R S T U V W X Y . .                                     ",
"                            . . Z `  ...+.o @./ #.$.%.< s t u v &.*.=.-.;.B C >.,.'.).!.. .                                     ",
"                            . . ~.{.].K L M ^.( O > a P Q /.(._.:.<.[.}.S T U |.1.!.!.!.. .                                     ",
"                            . . 2.3.4.5.6.7./ #.$.%.< 8.9.0.v a.*.b.c.;.B C d.).!.!.!.!.. .                                     ",
"                            . . 2.3.4.e.f.g.h.i.: j.k.l.m.n.o.p.<.[.}.S q.r.!.!.!.!.!.!.. .                                     ",
"                            . . 2.s.4.e.t.u.v.w.x.e y.9.z.v a.*.b.c.A.B.C.!.!.!.!.!.!.D.. .                                     ",
"                            . . 2.s.4.e.t.u.v.w.E.F.G.H.I.J.p.K.L.M.N.!.!.!.!.!.!.!.D.D.. .                                     ",
"                            . . 2.s.4.e.t.u.v.w.E.F.O.P.Q.R.S.T.U.V.!.!.!.!.!.!.!.D.D.W.. .                                     ",
"                            . . X.s.4.Y.t.u.Z.w.E.F.O.P.Q.`. +.+!.!.!.!.!.!.!.!.D.D.W.++. .                                     ",
"                            . . X.s.4.Y.t.u.Z.w.E.F.O.P.Q.`. +.+!.!.!.!.!.!.!.D.D.W.++@+. .                                     ",
"                            . . X.s.4.Y.t.u.Z.w.E.F.O.P.Q.`. +.+!.!.!.!.!.!.D.D.#+++@+$+. .                                     ",
"                            . . X.s.4.Y.t.%+Z.w.&+F.O.*+Q.`. +.+!.!.!.!.!.D.W.#+++@+$+=+. .                                     ",
"                            . . X.s.4.Y.t.%+Z.w.&+F.O.*+Q.`. +.+!.!.!.!.D.W.#+++@+$+=+-+. .                                     ",
"                            . . X.s.4.Y.;+%+Z.w.&+F.O.*+Q.`. +.+!.!.!.D.W.#+++@+$+=+-+>+. .                                     ",
"                        . . . . X.s.4.Y.;+%+Z.,+&+F.O.*+Q.'+ +.+!.!.D.W.#+++)+$+=+-+!+~+. . .                                   ",
"                      . . . . . X.s.4.Y.;+%+Z.,+&+F.O.*+Q.'+ +.+!.D.W.#+++)+$+{+-+!+]+^+. . . . . .                             ",
"                  . . . /+(+. . _+s.4.Y.;+%+:+,+&+<+O.*+Q.'+ +.+D.W.#+++)+[+{+-+}+]+^+|+. . 1+2+. . . . .                       ",
"                . . . 3+4+5+. . _+s.4.Y.;+%+:+,+&+<+O.*+Q.'+ +6+W.#+++)+[+{+7+}+]+^+|+8+. . 9+0+a+b+. . . . .                   ",
"            . . . /+(+5+5+5+. . _+s.4.Y.;+%+:+,+&+<+O.*+Q.'+ +6+c+++)+[+{+7+}+d+^+|+e+f+. . g+h+i+j+k+l+m+. . . . .             ",
"          . . . 3+4+5+5+5+5+. . _+s.n+Y.;+o+:+,+&+<+O.*+Q.'+p+6+++)+[+{+7+q+d+^+r+s+t+. u+v+w+x+y+z+A+B+C+D+E+F+. . . .         ",
"      . . . /+(+5+5+5+5+5+5+. . G+H+I+Y.;+o+:+,+&+<+O.*+Q.'+p+6+)+[+{+J+q+d+K+r+L+M+. N+O+P+P+Q+Q+Q+R+S+T+U+V+W+X+Y+. .         ",
"    . . . 3+4+5+5+5+5+5+5+5+Z+`+. .  @.@+@o+:+@@&+<+O.*+Q.'+p+6+[+{+J+q+d+K+#@$@. . %@&@*@*@*@*@*@=@-@;@>@,@'@)@!@~@. .         ",
". . . /+(+5+5+5+5+5+5+5+5+5+5+{@]@^@. . /@(@_@@@&+<+:@*+Q.'+p+6+{+<@q+d+#@[@}@. u+|@1@1@1@1@1@1@2@3@4@T+U+V+)@5@6@7@. .         ",
". . 3+4+5+5+5+5+5+5+5+5+5+5+5+5+5+8@9@0@. . a@b@c@d@:@*+Q.'+p+6+<@q+e@#@f@M+. g@h@i@i@i@i@i@j@k@l@m@n@>@o@'@p@q@7@r@. .         ",
". . s@t@8@5+5+5+5+5+5+5+5+5+5+5+5+5+5+5+u@v@w@. . x@y@z@A@'+p+6+B@e@e@C@. . D@E@F@F@F@F@F@F@G@H@I@J@K@U+V+L@M@7@r@N@. .         ",
". . O@O@P@Q@R@5+5+5+5+5+5+5+5+5+5+5+5+5+5+5+S@T@U@. . V@W@X@p+6+e@Y@Z@. u+`@ # # # # # #.#+#@###m@n@>@o@$#%#&#r@N@*#. .         ",
". . O@O@O@O@=#-#;#5+5+5+5+5+5+5+5+5+5+5+5+5+5+>#,#'#)#. . !#~#{#]#!#. ^#/#(#(#(#_#_#_#:#<#[#}#I@J@K@|#1#2#&#7@N@3#4#. .         ",
". . O@O@O@O@O@O@5#6#7#8#5+5+5+5+5+5+5+5+5+5+9#0#a#b#c#d#. . . . . . e#f#g#h#i#j#k#k#l#m#n#@###m@T+o#p#2#&#7@r@3#4#q#. .         ",
". . O@O@O@O@O@O@O@O@O@r#s#t#5+5+5+5+5+5+u#v#w#x#y#z#c#c#. . A#B#C#D#E#F#G#H#I#J#K#L#M#N#[#}#I@J@O#P#2#Q#7@r@N@4#R#S#. .         ",
". . O@O@O@O@O@O@O@O@O@O@O@T#U#V#5+5+5+>#W#X#x#Y#Z#`#c#c#. .  $.$+$E#F#G#H#I#@$#$$$%$&$*$=$-$m@;$>$2#Q#&#r@N@*#R#S#,$. .         ",
". . O@O@O@O@O@O@O@O@O@O@O@O@O@'$)$!$~${$X#]$^$/$($_$:$c#. . <$[$}$|$G#H#I#@$#$1$2$3$4$5$6$7$8$9$0$2#&#7@N@*#4#a$b$c$. .         ",
". . O@O@O@O@O@O@O@O@O@O@O@O@O@O@O@O@d$e$f$^$y#($g$h$i$c#. . <$j$E#F#G#H#@$#$k$l$m$n$o$4$p$q$0$0$2#&#7@r@3#4#q#S#c$r$. .         ",
". . O@O@O@O@O@O@O@O@O@O@O@O@O@O@O@O@e$f$x#y#($s$t$u$v$c#. . j$E#F#G#H#I#@$w$x$y$z$m$n$o$4$p$0$2#A$7@r@N@4#R#S#c$r$B$. .         ",
". . O@O@O@O@O@O@O@O@O@O@O@O@O@O@O@O@w#x#y#Z#s$t$C$D$E$F$. . E#F#G#H#I#@$G$H$I$J$y$z$m$n$o$4$2#Q#7@r@N@*#R#S#,$r$K$L$. .         ",
". . O@O@O@O@O@O@O@O@O@O@O@O@O@O@O@O@x#Y#/$s$t$C$D$M$N$O$. . F#G#H#I#@$#$P$Q$R$I$J$y$z$m$n$o$2#&#7@N@*#R#a$b$c$K$L$S$. .         ",
". . O@O@O@O@O@O@O@O@O@O@O@O@O@O@O@O@^$y#($T$h$U$V$N$W$X$. . G#G#I#@$#$Y$Z$`$Q$R$I$J$y$z$m$n$&#7@r@3#4#q#b$c$K$L$S$ %. .         ",
". . O@O@O@O@O@O@O@O@O@O@O@O@O@O@O@O@y#($g$h$u$.%+%@%#%$%. . G#H#@$#$%%&%*%Z$`$Q$R$I$J$=%z$m$7@r@N@4#R#S#c$r$L$-% %;%. .         ",
". . O@O@O@O@O@O@O@O@O@O@O@O@O@O@O@O@($s$t$u$.%>%,%'%)%!%. . H#I#@$w$~%{%]%*%Z$`$Q$R$I$J$=%z$r@N@*#R#S#,$r$B$L$ %;%^%. .         ",
". . O@O@O@O@O@O@O@O@O@O@O@O@O@O@O@O@s$t$C$D$M$/%(%_%:%<%. . I#@$G$[%}%{%{%]%*%Z$`$Q$R$I$J$=%N@*#R#a$,$|%K$L$S$1%;%2%. . .       ",
". . O@O@O@O@O@O@O@O@O@O@O@O@O@O@O@O@t$C$U$V$N$3%_%4%5%6%. . @$#$7%8%9%}%{%{%]%*%Z$`$Q$R$0%J$3#4#a$b$c$K$L$S$a%;%2%. . . . . .   ",
". . O@O@O@O@O@O@O@O@O@O@O@O@O@O@O@O@h$u$.%N$W$b%c%d%e%f%. . #$7%g%h%9%9%}%{%{%]%*%Z$`$Q$i%0%4#q#S#c$r$L$-% %;%2%. . . . . . . . ",
". . O@O@O@O@O@O@O@O@O@O@O@O@O@O@O@O@u$.%+%@%#%$%!%j%k%l%. . 7%g%m%n%o%9%9%}%{%{%]%*%Z$`$Q$i%R#S#,$r$B$-% %;%2%. . . . . . . .   ",
". . p%q%O@O@O@O@O@O@O@O@O@O@O@O@O@O@D$>%,%'%)%:%r%s%t%. . . u%v%w%x%o%o%9%9%}%{%{%]%*%Z$`$Q$S#,$r$K$L$S$1%y%. . . . . . . .     ",
". . . . p%q%O@O@O@O@O@O@O@O@O@O@O@O@M$/%(%_%4%<%z%A%. . . . . . B%C%o%o%o%9%9%}%{%{%]%*%Z$`$b$c$K$L$S$1%y%. . . . . . . .       ",
"    . . . . p%q%O@O@O@O@O@O@O@O@O@O@N$3%_%c%5%D%E%. . . . . . . . . F%G%o%o%9%9%}%{%{%]%*%Z$c$r$L$S$ %y%. . . . . . . .         ",
"        . . . . p%q%O@O@O@O@O@O@O@O@W$#%$%d%H%I%. . . . . . . . . . . . F%G%o%9%9%}%{%{%]%*%r$B$-% %y%. . . . . . . .           ",
"            . . . . p%q%O@O@O@O@O@O@'%)%!%J%K%. . . . . . . .       . . . . F%G%9%9%}%{%{%]%K$L$ %y%. . . . . . . .             ",
"                . . . . p%q%O@O@O@O@_%:%L%M%. . . . . . . .             . . . . F%N%9%}%{%{%L$S$y%. . . . . . . .               ",
"                    . . . . p%q%O@O@4%O%P%. . . . . . . .                   . . . . Q%N%}%{%S$R%. . . . . . . .                 ",
"                        . . . . p%q%S%. . . . . . . . .                         . . . . Q%T%R%. . . . . . . .                   ",
"                            . . . . . . . . . . . . .                               . . . . . . . . . . . .                     ",
"                                . . . . . . . . . .                                     . . . . . . . . . .                     ",
"                                    .                                                       .                                   ",
"                                                                                                                                "};
